<?xml version="1.0" encoding="UTF-8"?>
<!-- Generator: Adobe Illustrator 21.1.0, SVG Export Plug-In . SVG Version: 6.00 Build 0)  -->
<svg version="1.1" id="Layer_1" xmlns="http://www.w3.org/2000/svg" xmlns:xlink="http://www.w3.org/1999/xlink" x="0px" y="0px" viewBox="0 0 89 548" style="enable-background:new 0 0 89 548;" xml:space="preserve">
	<style type="text/css">
	.st0{fill:url(#SVGID_1_);}
	.st1{fill:url(#SVGID_2_);}
	.st2{opacity:0.24;fill:#004887;}
	</style>
	<linearGradient id="SVGID_1_" gradientUnits="userSpaceOnUse" x1="515.9156" y1="-824.6109" x2="916.5606" y2="-824.6109" gradientTransform="matrix(0.7224 -0.6915 0.6915 0.7224 97.0934 1362.7864)">
		<stop offset="0" style="stop-color:#2484C6"/>
		<stop offset="1" style="stop-color:#2484C6;stop-opacity:0"/>
	</linearGradient>
	<path class="st0" d="M70,9l14.2,494.6c0,22.1-17.9,40-40,40l0,0c-22.1,0-40-17.9-40-40L19.1,8.9L70,9z"/>
	<linearGradient id="SVGID_2_" gradientUnits="userSpaceOnUse" x1="613.8764" y1="-790.129" x2="957.7756" y2="-790.129" gradientTransform="matrix(0.6705 -0.7419 0.7419 0.6705 100.6779 1417.2371)">
		<stop offset="0.1064" style="stop-color:#2ADD90"/>
		<stop offset="0.9901" style="stop-color:#22007F;stop-opacity:0"/>
	</linearGradient>
	<path class="st1" d="M55.2,85.2l6.5,422.4c0,11.5-9.4,20.9-20.9,20.9l0,0c-11.5,0-20.9-9.4-20.9-20.9l8.7-422.3L55.2,85.2z"/>
	<polygon class="st2" points="28.4,492.5 39.4,496.5 49,489.7 48.6,501.4 58,508.3 46.7,511.6 43,522.7 36.4,513 24.7,512.9   31.9,503.6 "/>
</svg>