<?xml version="1.0" encoding="UTF-8" standalone="no"?>
<svg
   xmlns:dc="http://purl.org/dc/elements/1.1/"
   xmlns:cc="http://creativecommons.org/ns#"
   xmlns:rdf="http://www.w3.org/1999/02/22-rdf-syntax-ns#"
   xmlns:svg="http://www.w3.org/2000/svg"
   xmlns="http://www.w3.org/2000/svg"
   id="svg8"
   version="1.1"
   viewBox="0 0 119.1257 19.840223"
   height="19.840223mm"
   width="119.1257mm">
  <defs
     id="defs2" />
  <metadata
     id="metadata5">
    <rdf:RDF>
      <cc:Work
         rdf:about="">
        <dc:format>image/svg+xml</dc:format>
        <dc:type
           rdf:resource="http://purl.org/dc/dcmitype/StillImage" />
        <dc:title></dc:title>
      </cc:Work>
    </rdf:RDF>
  </metadata>
  <g
     transform="translate(-17.477693,-65.111842)"
     id="layer1">
    <g
       id="flowRoot815"
       style="font-style:normal;font-variant:normal;font-weight:normal;font-stretch:normal;font-size:40px;line-height:1.25;font-family:Pacifico;-inkscape-font-specification:'Pacifico, Normal';font-variant-ligatures:normal;font-variant-caps:normal;font-variant-numeric:normal;font-feature-settings:normal;text-align:start;letter-spacing:0px;word-spacing:0px;writing-mode:lr-tb;text-anchor:start;fill:#000000;fill-opacity:1;stroke:none"
       transform="scale(0.26458333)"
       aria-label="EUCCOSA">
      <path
         id="path823"
         style="font-style:normal;font-variant:normal;font-weight:bold;font-stretch:normal;font-size:106.66667175px;font-family:BodoniFLF;-inkscape-font-specification:'BodoniFLF, Bold';font-variant-ligatures:normal;font-variant-caps:normal;font-variant-numeric:normal;font-feature-settings:normal;text-align:start;writing-mode:lr-tb;text-anchor:start"
         d="m 105.52409,295.58534 q 1.06667,0 1.06667,-1.92 v -23.25333 q 0,-1.92 -1.06667,-1.92 -0.96,0 -1.06667,1.92 -0.53333,5.33333 -2.77333,8.10666 -2.133333,2.66667 -6.186667,2.66667 h -6.506667 v -31.68 h 8.213334 q 4.16,0 7.25333,1.49333 3.2,1.49334 5.33334,3.94667 2.24,2.34667 3.30666,5.33333 1.17334,2.98667 1.38667,5.97334 0,1.38666 1.06667,1.38666 1.06666,0 1.06666,-1.38666 l -0.85333,-15.46667 q -0.10667,-1.70667 -0.96,-2.34667 -0.85333,-0.64 -2.45333,-0.64 H 66.057422 v 1.70667 h 5.76 v 68.58667 h -5.76 v 1.70667 h 50.666668 q 1.70667,0 2.24,-0.85334 0.64,-0.85333 0.64,-2.34666 v -17.49334 q 0,-1.70667 -1.06667,-1.70667 -1.06666,0 -1.38666,1.70667 -0.85334,3.94667 -1.81334,7.46667 -0.96,3.41333 -2.88,5.97333 -1.92,2.56 -5.12,4.05334 -3.09333,1.49333 -8.21333,1.49333 H 88.990756 v -35.2 h 6.506667 q 4.053334,0 6.186667,2.66666 2.24,2.66667 2.77333,8.10667 0.10667,1.92 1.06667,1.92 z" />
      <path
         id="path825"
         style="font-style:normal;font-variant:normal;font-weight:bold;font-stretch:normal;font-size:106.66667175px;font-family:BodoniFLF;-inkscape-font-specification:'BodoniFLF, Bold';font-variant-ligatures:normal;font-variant-caps:normal;font-variant-numeric:normal;font-feature-settings:normal;text-align:start;writing-mode:lr-tb;text-anchor:start"
         d="m 174.53737,249.50534 q 2.24,0 3.94666,1.38667 1.70667,1.28 1.70667,4.05333 v 43.30667 q 0,4.90666 -1.28,8.64 -1.28,3.62666 -3.41333,6.08 -2.13334,2.45333 -4.90667,3.73333 -2.77333,1.17334 -5.76,1.17334 -4.58667,0 -7.57333,-1.17334 -2.88,-1.17333 -4.58667,-3.2 -1.70667,-2.13333 -2.45333,-5.01333 -0.64,-2.88 -0.64,-6.29334 v -52.69333 h 5.76 v -1.70667 h -28.69334 v 1.70667 h 5.76 v 49.06667 q 0,5.65333 1.92,9.92 1.92,4.16 5.33333,7.04 3.52001,2.77333 8.32001,4.16 4.90666,1.38667 10.77333,1.38667 11.52,0 17.38667,-5.65334 5.97333,-5.76 5.97333,-17.28 v -43.2 q 0,-2.77333 1.81333,-4.05333 1.81334,-1.38667 3.94667,-1.38667 v -1.70667 h -13.33333 z" />
      <path
         id="path827"
         style="font-style:normal;font-variant:normal;font-weight:bold;font-stretch:normal;font-size:106.66667175px;font-family:BodoniFLF;-inkscape-font-specification:'BodoniFLF, Bold';font-variant-ligatures:normal;font-variant-caps:normal;font-variant-numeric:normal;font-feature-settings:normal;text-align:start;writing-mode:lr-tb;text-anchor:start"
         d="m 241.95036,252.49201 q -2.45333,-2.45334 -6.4,-4.16 -3.84,-1.81334 -9.92,-1.81334 -8.96,0 -15.68,3.2 -6.61333,3.2 -11.09333,8.42667 -4.37333,5.22667 -6.61333,11.94667 -2.24001,6.72 -2.24001,13.76 0,7.04 2.24001,13.76 2.24,6.61333 6.61333,11.84 4.48,5.22667 11.09333,8.42667 6.72,3.2 15.57334,3.2 4.05333,0 7.14666,-0.96 3.2,-0.85334 5.44,-2.13334 2.34667,-1.28 3.84,-2.66666 1.49334,-1.38667 2.24,-2.34667 l 4.26667,6.08 q 0.74667,1.06667 1.28,1.06667 0.53333,0 0.53333,-1.17334 v -24.32 q 0,-1.38667 -0.85333,-1.38667 -0.74667,0 -1.06667,1.38667 -0.32,1.70667 -0.96,4.26667 -0.64,2.45333 -1.70666,5.22666 -1.06667,2.66667 -2.77334,5.44 -1.6,2.66667 -4.05333,4.80001 -2.45333,2.13333 -5.76,3.52 -3.2,1.28 -7.57333,1.28 -3.94667,0 -6.82667,-1.17334 -2.77333,-1.17333 -4.69333,-4.37333 -1.81334,-3.30667 -2.66667,-9.17334 -0.85333,-5.86666 -0.85333,-15.25333 v -10.66667 q 0,-9.49333 0.64,-15.36 0.64,-5.97333 2.34666,-9.17333 1.70667,-3.30667 4.8,-4.37333 3.09334,-1.17334 8.10667,-1.17334 3.94667,0 7.04,1.38667 3.09333,1.28 5.54667,3.84 2.56,2.56 4.48,6.18667 1.92,3.62666 3.52,8.21333 0.32,1.06667 1.17333,1.06667 0.74667,0 0.74667,-1.06667 v -18.88 q 0,-1.70667 -1.28,-1.70667 -0.85334,0 -1.6,0.96 z" />
      <path
         id="path829"
         style="font-style:normal;font-variant:normal;font-weight:bold;font-stretch:normal;font-size:106.66667175px;font-family:BodoniFLF;-inkscape-font-specification:'BodoniFLF, Bold';font-variant-ligatures:normal;font-variant-caps:normal;font-variant-numeric:normal;font-feature-settings:normal;text-align:start;writing-mode:lr-tb;text-anchor:start"
         d="m 305.8434,252.49201 q -2.45333,-2.45334 -6.4,-4.16 -3.84,-1.81334 -9.92,-1.81334 -8.96,0 -15.68,3.2 -6.61334,3.2 -11.09334,8.42667 -4.37333,5.22667 -6.61333,11.94667 -2.24,6.72 -2.24,13.76 0,7.04 2.24,13.76 2.24,6.61333 6.61333,11.84 4.48,5.22667 11.09334,8.42667 6.72,3.2 15.57333,3.2 4.05334,0 7.14667,-0.96 3.2,-0.85334 5.44,-2.13334 2.34667,-1.28 3.84,-2.66666 1.49333,-1.38667 2.24,-2.34667 l 4.26667,6.08 q 0.74666,1.06667 1.28,1.06667 0.53333,0 0.53333,-1.17334 v -24.32 q 0,-1.38667 -0.85333,-1.38667 -0.74667,0 -1.06667,1.38667 -0.32,1.70667 -0.96,4.26667 -0.64,2.45333 -1.70667,5.22666 -1.06666,2.66667 -2.77333,5.44 -1.6,2.66667 -4.05333,4.80001 -2.45334,2.13333 -5.76,3.52 -3.2,1.28 -7.57334,1.28 -3.94666,0 -6.82666,-1.17334 -2.77334,-1.17333 -4.69334,-4.37333 -1.81333,-3.30667 -2.66666,-9.17334 -0.85334,-5.86666 -0.85334,-15.25333 v -10.66667 q 0,-9.49333 0.64,-15.36 0.64,-5.97333 2.34667,-9.17333 1.70667,-3.30667 4.8,-4.37333 3.09333,-1.17334 8.10667,-1.17334 3.94666,0 7.04,1.38667 3.09333,1.28 5.54666,3.84 2.56,2.56 4.48,6.18667 1.92,3.62666 3.52,8.21333 0.32,1.06667 1.17334,1.06667 0.74666,0 0.74666,-1.06667 v -18.88 q 0,-1.70667 -1.28,-1.70667 -0.85333,0 -1.6,0.96 z" />
      <path
         id="path831"
         style="font-style:normal;font-variant:normal;font-weight:bold;font-stretch:normal;font-size:106.66667175px;font-family:BodoniFLF;-inkscape-font-specification:'BodoniFLF, Bold';font-variant-ligatures:normal;font-variant-caps:normal;font-variant-numeric:normal;font-feature-settings:normal;text-align:start;writing-mode:lr-tb;text-anchor:start"
         d="m 321.84326,283.74534 q 0,7.04 2.13333,13.76 2.24,6.61333 6.50667,11.94667 4.37333,5.22667 10.77333,8.42667 6.4,3.2 14.82667,3.2 8.42667,0 14.82667,-3.2 6.4,-3.2 10.66666,-8.42667 4.37334,-5.33334 6.50667,-11.94667 2.24,-6.72 2.24,-13.76 0,-6.93333 -2.24,-13.65333 -2.13333,-6.72 -6.50667,-11.94667 -4.26666,-5.22667 -10.66666,-8.42667 -6.4,-3.2 -14.82667,-3.2 -8.42667,0 -14.82667,3.2 -6.4,3.2 -10.77333,8.42667 -4.26667,5.22667 -6.50667,11.94667 -2.13333,6.72 -2.13333,13.65333 z m 34.24,-35.30667 q 4.48,0 7.14667,1.70667 2.77333,1.70667 4.16,5.33333 1.49333,3.62667 1.92,9.28 0.53333,5.65334 0.53333,13.65334 v 10.66666 q 0,8.85334 -0.53333,14.72 -0.42667,5.76 -1.92,9.17334 -1.38667,3.41333 -4.16,4.8 -2.66667,1.38667 -7.14667,1.38667 -4.48,0 -7.25333,-1.38667 -2.66667,-1.38667 -4.16,-4.8 -1.38667,-3.41334 -1.92,-9.17334 -0.42667,-5.86666 -0.42667,-14.72 v -10.66666 q 0,-8 0.42667,-13.65334 0.53333,-5.65333 1.92,-9.28 1.49333,-3.62666 4.16,-5.33333 2.77333,-1.70667 7.25333,-1.70667 z" />
      <path
         id="path833"
         style="font-style:normal;font-variant:normal;font-weight:bold;font-stretch:normal;font-size:106.66667175px;font-family:BodoniFLF;-inkscape-font-specification:'BodoniFLF, Bold';font-variant-ligatures:normal;font-variant-caps:normal;font-variant-numeric:normal;font-feature-settings:normal;text-align:start;writing-mode:lr-tb;text-anchor:start"
         d="m 441.84317,247.05201 -2.77333,4.16 q -2.24,-1.49334 -5.97333,-3.09334 -3.73334,-1.6 -9.49334,-1.6 -5.86666,0 -10.34667,2.13334 -4.37333,2.02666 -7.36,5.33333 -2.98666,3.30667 -4.58666,7.57333 -1.49334,4.26667 -1.49334,8.53334 0,7.57333 3.62667,12.69333 3.62667,5.12 11.84,7.46667 1.92,0.53333 4.16,1.06666 2.24,0.53334 4.37334,1.06667 2.24,0.42667 4.05333,0.85333 1.81333,0.42667 2.77333,0.74667 5.01334,1.38667 6.72,4.16 1.81334,2.77333 1.81334,7.25333 0,2.13334 -0.96,4.58667 -0.85334,2.34667 -2.77334,4.37334 -1.81333,2.02666 -4.8,3.41333 -2.88,1.38667 -6.82666,1.38667 -5.33334,0 -9.17334,-1.92 -3.73333,-1.92 -6.4,-5.01334 -2.66667,-3.09333 -4.37333,-6.93333 -1.70667,-3.84 -2.77334,-7.68 -0.42666,-1.49334 -0.96,-1.49334 -0.32,0 -0.53333,0.32 -0.10667,0.32 -0.10667,1.38667 v 20.90667 q 0,0.64 0.10667,1.17333 0.21333,0.53334 0.74667,0.53334 0.74666,0 1.70666,-1.49334 l 3.30667,-5.01333 q 1.06667,1.06667 2.56,2.34667 1.6,1.17333 3.73333,2.24 2.24,1.06666 5.12001,1.81333 2.98666,0.74667 7.04,0.74667 6.29333,0 10.98666,-2.02667 4.69334,-2.13333 7.78667,-5.54667 3.09333,-3.41333 4.58667,-7.78667 1.6,-4.37333 1.6,-8.96 0,-9.81333 -4.90667,-15.78666 -4.8,-6.08 -14.29333,-7.89334 -2.34667,-0.42666 -5.76,-1.17333 -3.41334,-0.85333 -5.97334,-1.70667 -3.30667,-1.17333 -4.8,-3.73333 -1.38667,-2.66667 -1.38667,-6.61333 0,-2.13334 0.74667,-4.16 0.74667,-2.13334 2.24,-3.73334 1.49333,-1.6 3.73334,-2.56 2.24,-0.96 5.22666,-0.96 2.45334,0 5.01334,0.74667 2.66666,0.64 5.12,2.45333 2.45333,1.81334 4.58666,5.12 2.13334,3.30667 3.52,8.42667 0.32,1.49333 0.96,1.49333 0.53334,0 0.53334,-0.42666 0.10666,-0.53334 0.10666,-1.17334 v -17.92 q 0,-1.06666 -0.53333,-1.06666 -0.53333,0 -1.06667,0.96 z" />
      <path
         id="path835"
         style="font-style:normal;font-variant:normal;font-weight:bold;font-stretch:normal;font-size:106.66667175px;font-family:BodoniFLF;-inkscape-font-specification:'BodoniFLF, Bold';font-variant-ligatures:normal;font-variant-caps:normal;font-variant-numeric:normal;font-feature-settings:normal;text-align:start;writing-mode:lr-tb;text-anchor:start"
         d="m 479.70963,247.15867 -21.54667,65.38667 q -0.74667,2.24 -2.77333,3.94667 -1.92,1.6 -5.33334,1.6 v 1.70667 h 16.10667 v -1.70667 q -1.92,0 -3.09333,-0.32 -1.17334,-0.42667 -1.81334,-0.96 -0.64,-0.64 -0.85333,-1.28 -0.21333,-0.74667 -0.21333,-1.28 0,-0.64 0,-1.06667 0.10666,-0.53333 0.42666,-1.38667 l 4.48,-14.29333 h 21.44001 l 6.82666,20.58667 h -5.76 v 1.70667 h 28.69334 v -1.70667 h -5.76 l -23.46667,-70.93334 z m -3.94667,17.81334 10.13334,30.82666 h -20.16001 z" />
    </g>
  </g>
</svg>
