<svg width="205" height="205" viewBox="0 0 205 205" fill="none" xmlns="http://www.w3.org/2000/svg">
    <path d="M102.5 205C159.109 205 205 159.109 205 102.5C205 45.8908 159.109 0 102.5 0C45.8908 0 0 45.8908 0 102.5C0 159.109 45.8908 205 102.5 205Z" fill="url(#paint0_linear)"/>
    <path d="M150.388 48.8267C143.592 52.9147 142.31 63.2557 147.524 71.924C152.738 80.5924 162.474 84.3055 169.27 80.2176C176.066 76.1296 177.349 65.7886 172.135 57.1203C166.92 48.4519 157.184 44.7388 150.388 48.8267Z" fill="url(#paint1_linear)"/>
    <path d="M50.2901 48.8581C53.4265 59.0388 66.4994 64.0478 79.4894 60.0461C92.4793 56.0443 100.467 44.5471 97.3309 34.3664C94.1946 24.1857 81.1217 19.1767 68.1317 23.1785C55.1417 27.1802 47.1538 38.6774 50.2901 48.8581Z" fill="url(#paint2_linear)"/>
    <path d="M105.977 72C102.372 75.6982 102.994 82.1521 107.367 86.4153C111.74 90.6785 118.208 91.1365 121.813 87.4383C125.419 83.7402 124.796 77.2862 120.423 73.023C116.05 68.7599 109.582 68.3018 105.977 72Z" fill="url(#paint3_linear)"/>
    <defs>
        <linearGradient id="paint0_linear" x1="136.739" y1="66.9609" x2="16.0809" y2="192.201" gradientUnits="userSpaceOnUse">
            <stop stop-color="#B86DDE"/>
            <stop offset="0.994624" stop-color="#295EEE"/>
        </linearGradient>
        <linearGradient id="paint1_linear" x1="155.609" y1="64.7927" x2="182.489" y2="61.3034" gradientUnits="userSpaceOnUse">
            <stop stop-color="#B86DDE"/>
            <stop offset="1" stop-color="#295EEE"/>
        </linearGradient>
        <linearGradient id="paint2_linear" x1="76.4766" y1="48.329" x2="105.827" y2="36.9591" gradientUnits="userSpaceOnUse">
            <stop stop-color="#B86DDE"/>
            <stop offset="0.994624" stop-color="#295EEE"/>
        </linearGradient>
        <linearGradient id="paint3_linear" x1="114.46" y1="84.6324" x2="137.306" y2="77.3719" gradientUnits="userSpaceOnUse">
            <stop stop-color="#B86DDE"/>
            <stop offset="0.994624" stop-color="#295EEE"/>
        </linearGradient>
    </defs>
</svg>